<mxfile host="app.diagrams.net" agent="Mozilla/5.0 (Macintosh; Intel Mac OS X 10_15_7) AppleWebKit/537.36 (KHTML, like Gecko) Chrome/133.0.0.0 Safari/537.36" version="26.1.0">
  <diagram id="C5RBs43oDa-KdzZeNtuy" name="Page-1">
    <mxGraphModel dx="1194" dy="661" grid="1" gridSize="10" guides="1" tooltips="1" connect="1" arrows="1" fold="1" page="1" pageScale="1" pageWidth="827" pageHeight="1169" math="0" shadow="0">
      <root>
        <mxCell id="WIyWlLk6GJQsqaUBKTNV-0" />
        <mxCell id="WIyWlLk6GJQsqaUBKTNV-1" parent="WIyWlLk6GJQsqaUBKTNV-0" />
        <mxCell id="tnzwanF5Vy6JVnjVZYrW-280" value="调控网络" style="rounded=0;whiteSpace=wrap;html=1;fontSize=20;verticalAlign=bottom;" parent="WIyWlLk6GJQsqaUBKTNV-1" vertex="1">
          <mxGeometry x="360" y="180" width="240" height="540" as="geometry" />
        </mxCell>
        <mxCell id="tnzwanF5Vy6JVnjVZYrW-281" value="临床转化" style="rounded=0;whiteSpace=wrap;html=1;fontSize=20;verticalAlign=bottom;" parent="WIyWlLk6GJQsqaUBKTNV-1" vertex="1">
          <mxGeometry x="680" y="180" width="240" height="540" as="geometry" />
        </mxCell>
        <mxCell id="tnzwanF5Vy6JVnjVZYrW-266" value="分子机制" style="rounded=0;whiteSpace=wrap;html=1;fontSize=20;verticalAlign=bottom;" parent="WIyWlLk6GJQsqaUBKTNV-1" vertex="1">
          <mxGeometry x="40" y="180" width="240" height="540" as="geometry" />
        </mxCell>
        <mxCell id="tnzwanF5Vy6JVnjVZYrW-215" value="细胞功能实验" style="swimlane;fontStyle=0;childLayout=stackLayout;horizontal=1;startSize=30;fillColor=none;horizontalStack=0;resizeParent=1;resizeParentMax=0;resizeLast=0;collapsible=1;marginBottom=0;html=1;textDirection=rtl;fontSize=12;" parent="WIyWlLk6GJQsqaUBKTNV-1" vertex="1">
          <mxGeometry x="60" y="210" width="200" height="108" as="geometry" />
        </mxCell>
        <mxCell id="tnzwanF5Vy6JVnjVZYrW-216" value="CellTiter-Glo检测增殖能力" style="text;strokeColor=none;fillColor=none;align=left;verticalAlign=top;spacingLeft=4;spacingRight=4;overflow=hidden;rotatable=0;points=[[0,0.5],[1,0.5]];portConstraint=eastwest;whiteSpace=wrap;html=1;fontSize=12;" parent="tnzwanF5Vy6JVnjVZYrW-215" vertex="1">
          <mxGeometry y="30" width="200" height="26" as="geometry" />
        </mxCell>
        <mxCell id="tnzwanF5Vy6JVnjVZYrW-217" value="流式细胞术检测周期与凋亡" style="text;strokeColor=none;fillColor=none;align=left;verticalAlign=top;spacingLeft=4;spacingRight=4;overflow=hidden;rotatable=0;points=[[0,0.5],[1,0.5]];portConstraint=eastwest;whiteSpace=wrap;html=1;fontSize=12;" parent="tnzwanF5Vy6JVnjVZYrW-215" vertex="1">
          <mxGeometry y="56" width="200" height="26" as="geometry" />
        </mxCell>
        <mxCell id="tnzwanF5Vy6JVnjVZYrW-218" value="Transwell检测侵袭与迁移" style="text;strokeColor=none;fillColor=none;align=left;verticalAlign=top;spacingLeft=4;spacingRight=4;overflow=hidden;rotatable=0;points=[[0,0.5],[1,0.5]];portConstraint=eastwest;whiteSpace=wrap;html=1;fontSize=12;" parent="tnzwanF5Vy6JVnjVZYrW-215" vertex="1">
          <mxGeometry y="82" width="200" height="26" as="geometry" />
        </mxCell>
        <mxCell id="tnzwanF5Vy6JVnjVZYrW-219" value="细胞免疫荧光与免疫组化" style="swimlane;fontStyle=0;childLayout=stackLayout;horizontal=1;startSize=26;fillColor=none;horizontalStack=0;resizeParent=1;resizeParentMax=0;resizeLast=0;collapsible=1;marginBottom=0;html=1;fontSize=12;" parent="WIyWlLk6GJQsqaUBKTNV-1" vertex="1">
          <mxGeometry x="60" y="348" width="200" height="70" as="geometry" />
        </mxCell>
        <mxCell id="tnzwanF5Vy6JVnjVZYrW-220" value="检测ΔNp63、KRT17、KRT5、S100A2表达" style="text;strokeColor=none;fillColor=none;align=left;verticalAlign=top;spacingLeft=4;spacingRight=4;overflow=hidden;rotatable=0;points=[[0,0.5],[1,0.5]];portConstraint=eastwest;whiteSpace=wrap;html=1;fontSize=12;" parent="tnzwanF5Vy6JVnjVZYrW-219" vertex="1">
          <mxGeometry y="26" width="200" height="44" as="geometry" />
        </mxCell>
        <mxCell id="tnzwanF5Vy6JVnjVZYrW-223" value="CUT&amp;amp;Tag检测组蛋白修饰" style="swimlane;fontStyle=0;childLayout=stackLayout;horizontal=1;startSize=26;fillColor=none;horizontalStack=0;resizeParent=1;resizeParentMax=0;resizeLast=0;collapsible=1;marginBottom=0;html=1;fontSize=12;" parent="WIyWlLk6GJQsqaUBKTNV-1" vertex="1">
          <mxGeometry x="60" y="440" width="200" height="122" as="geometry" />
        </mxCell>
        <mxCell id="tnzwanF5Vy6JVnjVZYrW-224" value="目标基因：H3K27me3、H3K9me3、ΔNp63" style="text;strokeColor=none;fillColor=none;align=left;verticalAlign=top;spacingLeft=4;spacingRight=4;overflow=hidden;rotatable=0;points=[[0,0.5],[1,0.5]];portConstraint=eastwest;whiteSpace=wrap;html=1;fontSize=12;" parent="tnzwanF5Vy6JVnjVZYrW-223" vertex="1">
          <mxGeometry y="26" width="200" height="44" as="geometry" />
        </mxCell>
        <mxCell id="tnzwanF5Vy6JVnjVZYrW-225" value="Peak分析：MACS2，CHIPseeker" style="text;strokeColor=none;fillColor=none;align=left;verticalAlign=top;spacingLeft=4;spacingRight=4;overflow=hidden;rotatable=0;points=[[0,0.5],[1,0.5]];portConstraint=eastwest;whiteSpace=wrap;html=1;fontSize=12;" parent="tnzwanF5Vy6JVnjVZYrW-223" vertex="1">
          <mxGeometry y="70" width="200" height="26" as="geometry" />
        </mxCell>
        <mxCell id="tnzwanF5Vy6JVnjVZYrW-241" value="Motif分析：HOMMER" style="text;strokeColor=none;fillColor=none;align=left;verticalAlign=top;spacingLeft=4;spacingRight=4;overflow=hidden;rotatable=0;points=[[0,0.5],[1,0.5]];portConstraint=eastwest;whiteSpace=wrap;html=1;fontSize=12;" parent="tnzwanF5Vy6JVnjVZYrW-223" vertex="1">
          <mxGeometry y="96" width="200" height="26" as="geometry" />
        </mxCell>
        <mxCell id="tnzwanF5Vy6JVnjVZYrW-228" value="ATACseq" style="swimlane;fontStyle=0;childLayout=stackLayout;horizontal=1;startSize=26;fillColor=none;horizontalStack=0;resizeParent=1;resizeParentMax=0;resizeLast=0;collapsible=1;marginBottom=0;html=1;fontSize=12;" parent="WIyWlLk6GJQsqaUBKTNV-1" vertex="1">
          <mxGeometry x="60" y="585" width="200" height="52" as="geometry" />
        </mxCell>
        <mxCell id="tnzwanF5Vy6JVnjVZYrW-229" value="染色质开放区域" style="text;strokeColor=none;fillColor=none;align=left;verticalAlign=top;spacingLeft=4;spacingRight=4;overflow=hidden;rotatable=0;points=[[0,0.5],[1,0.5]];portConstraint=eastwest;whiteSpace=wrap;html=1;fontSize=12;" parent="tnzwanF5Vy6JVnjVZYrW-228" vertex="1">
          <mxGeometry y="26" width="200" height="26" as="geometry" />
        </mxCell>
        <mxCell id="tnzwanF5Vy6JVnjVZYrW-233" value="&lt;span class=&quot;notion-enable-hover&quot; data-token-index=&quot;0&quot; style=&quot;font-weight:600&quot;&gt;ELF3与ΔNp63的拮抗调控表观遗传机制&lt;/span&gt;" style="rounded=0;whiteSpace=wrap;html=1;fontSize=12;" parent="WIyWlLk6GJQsqaUBKTNV-1" vertex="1">
          <mxGeometry x="40" y="130" width="240" height="50" as="geometry" />
        </mxCell>
        <mxCell id="tnzwanF5Vy6JVnjVZYrW-234" value="&lt;span class=&quot;notion-enable-hover&quot; data-token-index=&quot;0&quot; style=&quot;font-weight:600&quot;&gt;ELF3与经典转录因子的协同调控网络&lt;/span&gt;" style="rounded=0;whiteSpace=wrap;html=1;fontSize=12;" parent="WIyWlLk6GJQsqaUBKTNV-1" vertex="1">
          <mxGeometry x="360" y="130" width="240" height="50" as="geometry" />
        </mxCell>
        <mxCell id="tnzwanF5Vy6JVnjVZYrW-235" value="&lt;span class=&quot;notion-enable-hover&quot; data-token-index=&quot;0&quot; style=&quot;font-weight:600&quot;&gt;ELF3对转录亚型可塑性的调控及化疗敏感性的影响&lt;/span&gt;" style="rounded=0;whiteSpace=wrap;html=1;fontSize=12;" parent="WIyWlLk6GJQsqaUBKTNV-1" vertex="1">
          <mxGeometry x="680" y="130" width="240" height="50" as="geometry" />
        </mxCell>
        <mxCell id="tnzwanF5Vy6JVnjVZYrW-282" style="edgeStyle=orthogonalEdgeStyle;rounded=0;orthogonalLoop=1;jettySize=auto;html=1;exitX=0.5;exitY=1;exitDx=0;exitDy=0;entryX=0.5;entryY=0;entryDx=0;entryDy=0;" parent="WIyWlLk6GJQsqaUBKTNV-1" source="tnzwanF5Vy6JVnjVZYrW-236" target="tnzwanF5Vy6JVnjVZYrW-233" edge="1">
          <mxGeometry relative="1" as="geometry" />
        </mxCell>
        <mxCell id="tnzwanF5Vy6JVnjVZYrW-283" style="edgeStyle=orthogonalEdgeStyle;rounded=0;orthogonalLoop=1;jettySize=auto;html=1;exitX=0.5;exitY=1;exitDx=0;exitDy=0;" parent="WIyWlLk6GJQsqaUBKTNV-1" source="tnzwanF5Vy6JVnjVZYrW-236" target="tnzwanF5Vy6JVnjVZYrW-235" edge="1">
          <mxGeometry relative="1" as="geometry" />
        </mxCell>
        <mxCell id="tnzwanF5Vy6JVnjVZYrW-284" style="edgeStyle=orthogonalEdgeStyle;rounded=0;orthogonalLoop=1;jettySize=auto;html=1;exitX=0.5;exitY=1;exitDx=0;exitDy=0;entryX=0.5;entryY=0;entryDx=0;entryDy=0;" parent="WIyWlLk6GJQsqaUBKTNV-1" source="tnzwanF5Vy6JVnjVZYrW-236" target="tnzwanF5Vy6JVnjVZYrW-234" edge="1">
          <mxGeometry relative="1" as="geometry">
            <Array as="points">
              <mxPoint x="480" y="80" />
            </Array>
          </mxGeometry>
        </mxCell>
        <mxCell id="tnzwanF5Vy6JVnjVZYrW-236" value="ELF3通过调控ΔNp63介导的鳞化基底转录亚型胰腺导管腺癌的可塑性以及药物反应的多组学机制研究" style="rounded=0;whiteSpace=wrap;html=1;fontSize=15;" parent="WIyWlLk6GJQsqaUBKTNV-1" vertex="1">
          <mxGeometry x="100" y="20" width="760" height="60" as="geometry" />
        </mxCell>
        <mxCell id="tnzwanF5Vy6JVnjVZYrW-237" value="CUT&amp;amp;Tag检测组蛋白修饰" style="swimlane;fontStyle=0;childLayout=stackLayout;horizontal=1;startSize=26;fillColor=none;horizontalStack=0;resizeParent=1;resizeParentMax=0;resizeLast=0;collapsible=1;marginBottom=0;html=1;fontSize=12;" parent="WIyWlLk6GJQsqaUBKTNV-1" vertex="1">
          <mxGeometry x="380" y="210" width="200" height="138" as="geometry" />
        </mxCell>
        <mxCell id="tnzwanF5Vy6JVnjVZYrW-238" value="目标基因：H3K27ac、ELF3、GATA6、HNF4A" style="text;strokeColor=none;fillColor=none;align=left;verticalAlign=top;spacingLeft=4;spacingRight=4;overflow=hidden;rotatable=0;points=[[0,0.5],[1,0.5]];portConstraint=eastwest;whiteSpace=wrap;html=1;fontSize=12;" parent="tnzwanF5Vy6JVnjVZYrW-237" vertex="1">
          <mxGeometry y="26" width="200" height="34" as="geometry" />
        </mxCell>
        <mxCell id="tnzwanF5Vy6JVnjVZYrW-239" value="Peak分析：MACS2，CHIPseeker" style="text;strokeColor=none;fillColor=none;align=left;verticalAlign=top;spacingLeft=4;spacingRight=4;overflow=hidden;rotatable=0;points=[[0,0.5],[1,0.5]];portConstraint=eastwest;whiteSpace=wrap;html=1;fontSize=12;" parent="tnzwanF5Vy6JVnjVZYrW-237" vertex="1">
          <mxGeometry y="60" width="200" height="26" as="geometry" />
        </mxCell>
        <mxCell id="tnzwanF5Vy6JVnjVZYrW-243" value="Motif分析：HOMMER" style="text;strokeColor=none;fillColor=none;align=left;verticalAlign=top;spacingLeft=4;spacingRight=4;overflow=hidden;rotatable=0;points=[[0,0.5],[1,0.5]];portConstraint=eastwest;whiteSpace=wrap;html=1;fontSize=12;" parent="tnzwanF5Vy6JVnjVZYrW-237" vertex="1">
          <mxGeometry y="86" width="200" height="26" as="geometry" />
        </mxCell>
        <mxCell id="tnzwanF5Vy6JVnjVZYrW-240" value="ROSE2.0鉴定超级增强子" style="text;strokeColor=none;fillColor=none;align=left;verticalAlign=top;spacingLeft=4;spacingRight=4;overflow=hidden;rotatable=0;points=[[0,0.5],[1,0.5]];portConstraint=eastwest;whiteSpace=wrap;html=1;fontSize=12;" parent="tnzwanF5Vy6JVnjVZYrW-237" vertex="1">
          <mxGeometry y="112" width="200" height="26" as="geometry" />
        </mxCell>
        <mxCell id="tnzwanF5Vy6JVnjVZYrW-244" value="qPCR与WB" style="swimlane;fontStyle=0;childLayout=stackLayout;horizontal=1;startSize=26;fillColor=none;horizontalStack=0;resizeParent=1;resizeParentMax=0;resizeLast=0;collapsible=1;marginBottom=0;html=1;fontSize=12;" parent="WIyWlLk6GJQsqaUBKTNV-1" vertex="1">
          <mxGeometry x="380" y="370" width="200" height="90" as="geometry" />
        </mxCell>
        <mxCell id="tnzwanF5Vy6JVnjVZYrW-245" value="检测GATA6、HNF4A、HNF1A、TFF1、TSPAN8、MUC13、LYZ表达" style="text;strokeColor=none;fillColor=none;align=left;verticalAlign=top;spacingLeft=4;spacingRight=4;overflow=hidden;rotatable=0;points=[[0,0.5],[1,0.5]];portConstraint=eastwest;whiteSpace=wrap;html=1;fontSize=12;" parent="tnzwanF5Vy6JVnjVZYrW-244" vertex="1">
          <mxGeometry y="26" width="200" height="64" as="geometry" />
        </mxCell>
        <mxCell id="tnzwanF5Vy6JVnjVZYrW-246" value="RNA-seq" style="swimlane;fontStyle=0;childLayout=stackLayout;horizontal=1;startSize=26;fillColor=none;horizontalStack=0;resizeParent=1;resizeParentMax=0;resizeLast=0;collapsible=1;marginBottom=0;html=1;fontSize=12;" parent="WIyWlLk6GJQsqaUBKTNV-1" vertex="1">
          <mxGeometry x="380" y="482" width="200" height="70" as="geometry" />
        </mxCell>
        <mxCell id="tnzwanF5Vy6JVnjVZYrW-247" value="转录亚型基因分析" style="text;strokeColor=none;fillColor=none;align=left;verticalAlign=top;spacingLeft=4;spacingRight=4;overflow=hidden;rotatable=0;points=[[0,0.5],[1,0.5]];portConstraint=eastwest;whiteSpace=wrap;html=1;fontSize=12;" parent="tnzwanF5Vy6JVnjVZYrW-246" vertex="1">
          <mxGeometry y="26" width="200" height="44" as="geometry" />
        </mxCell>
        <mxCell id="tnzwanF5Vy6JVnjVZYrW-248" value="经典型类器官验证" style="swimlane;fontStyle=0;childLayout=stackLayout;horizontal=1;startSize=30;fillColor=none;horizontalStack=0;resizeParent=1;resizeParentMax=0;resizeLast=0;collapsible=1;marginBottom=0;html=1;textDirection=rtl;fontSize=12;" parent="WIyWlLk6GJQsqaUBKTNV-1" vertex="1">
          <mxGeometry x="380" y="572" width="200" height="108" as="geometry">
            <mxRectangle x="380" y="550" width="140" height="30" as="alternateBounds" />
          </mxGeometry>
        </mxCell>
        <mxCell id="tnzwanF5Vy6JVnjVZYrW-249" value="ELF3敲除" style="text;strokeColor=none;fillColor=none;align=left;verticalAlign=top;spacingLeft=4;spacingRight=4;overflow=hidden;rotatable=0;points=[[0,0.5],[1,0.5]];portConstraint=eastwest;whiteSpace=wrap;html=1;fontSize=12;" parent="tnzwanF5Vy6JVnjVZYrW-248" vertex="1">
          <mxGeometry y="30" width="200" height="26" as="geometry" />
        </mxCell>
        <mxCell id="tnzwanF5Vy6JVnjVZYrW-250" value="单细胞测序" style="text;strokeColor=none;fillColor=none;align=left;verticalAlign=top;spacingLeft=4;spacingRight=4;overflow=hidden;rotatable=0;points=[[0,0.5],[1,0.5]];portConstraint=eastwest;whiteSpace=wrap;html=1;fontSize=12;" parent="tnzwanF5Vy6JVnjVZYrW-248" vertex="1">
          <mxGeometry y="56" width="200" height="26" as="geometry" />
        </mxCell>
        <mxCell id="tnzwanF5Vy6JVnjVZYrW-251" value="转录亚型基因分析" style="text;strokeColor=none;fillColor=none;align=left;verticalAlign=top;spacingLeft=4;spacingRight=4;overflow=hidden;rotatable=0;points=[[0,0.5],[1,0.5]];portConstraint=eastwest;whiteSpace=wrap;html=1;fontSize=12;" parent="tnzwanF5Vy6JVnjVZYrW-248" vertex="1">
          <mxGeometry y="82" width="200" height="26" as="geometry" />
        </mxCell>
        <mxCell id="tnzwanF5Vy6JVnjVZYrW-252" value="体外化疗药物反应检测" style="swimlane;fontStyle=0;childLayout=stackLayout;horizontal=1;startSize=30;fillColor=none;horizontalStack=0;resizeParent=1;resizeParentMax=0;resizeLast=0;collapsible=1;marginBottom=0;html=1;textDirection=rtl;fontSize=12;" parent="WIyWlLk6GJQsqaUBKTNV-1" vertex="1">
          <mxGeometry x="700" y="200" width="200" height="70" as="geometry" />
        </mxCell>
        <mxCell id="tnzwanF5Vy6JVnjVZYrW-253" value="2D+3D条件：IC50药物反应曲线、克隆形成" style="text;strokeColor=none;fillColor=none;align=left;verticalAlign=top;spacingLeft=4;spacingRight=4;overflow=hidden;rotatable=0;points=[[0,0.5],[1,0.5]];portConstraint=eastwest;whiteSpace=wrap;html=1;fontSize=12;" parent="tnzwanF5Vy6JVnjVZYrW-252" vertex="1">
          <mxGeometry y="30" width="200" height="40" as="geometry" />
        </mxCell>
        <mxCell id="tnzwanF5Vy6JVnjVZYrW-256" value="裸鼠成瘤化疗药物实验" style="swimlane;fontStyle=0;childLayout=stackLayout;horizontal=1;startSize=26;fillColor=none;horizontalStack=0;resizeParent=1;resizeParentMax=0;resizeLast=0;collapsible=1;marginBottom=0;html=1;fontSize=12;" parent="WIyWlLk6GJQsqaUBKTNV-1" vertex="1">
          <mxGeometry x="700" y="292" width="200" height="158" as="geometry" />
        </mxCell>
        <mxCell id="tnzwanF5Vy6JVnjVZYrW-257" value="ELF3过表达基地型细胞成瘤" style="text;strokeColor=none;fillColor=none;align=left;verticalAlign=top;spacingLeft=4;spacingRight=4;overflow=hidden;rotatable=0;points=[[0,0.5],[1,0.5]];portConstraint=eastwest;whiteSpace=wrap;html=1;fontSize=12;" parent="tnzwanF5Vy6JVnjVZYrW-256" vertex="1">
          <mxGeometry y="26" width="200" height="44" as="geometry" />
        </mxCell>
        <mxCell id="tnzwanF5Vy6JVnjVZYrW-258" value="实验分组：安慰剂组vs吉西他滨组" style="text;strokeColor=none;fillColor=none;align=left;verticalAlign=top;spacingLeft=4;spacingRight=4;overflow=hidden;rotatable=0;points=[[0,0.5],[1,0.5]];portConstraint=eastwest;whiteSpace=wrap;html=1;fontSize=12;" parent="tnzwanF5Vy6JVnjVZYrW-256" vertex="1">
          <mxGeometry y="70" width="200" height="44" as="geometry" />
        </mxCell>
        <mxCell id="tnzwanF5Vy6JVnjVZYrW-259" value="检测肿瘤体积、小鼠体重" style="text;strokeColor=none;fillColor=none;align=left;verticalAlign=top;spacingLeft=4;spacingRight=4;overflow=hidden;rotatable=0;points=[[0,0.5],[1,0.5]];portConstraint=eastwest;whiteSpace=wrap;html=1;fontSize=12;" parent="tnzwanF5Vy6JVnjVZYrW-256" vertex="1">
          <mxGeometry y="114" width="200" height="44" as="geometry" />
        </mxCell>
        <mxCell id="tnzwanF5Vy6JVnjVZYrW-260" value="组织学与分子标志物检测" style="swimlane;fontStyle=0;childLayout=stackLayout;horizontal=1;startSize=30;fillColor=none;horizontalStack=0;resizeParent=1;resizeParentMax=0;resizeLast=0;collapsible=1;marginBottom=0;html=1;textDirection=rtl;fontSize=12;" parent="WIyWlLk6GJQsqaUBKTNV-1" vertex="1">
          <mxGeometry x="700" y="465" width="200" height="120" as="geometry" />
        </mxCell>
        <mxCell id="tnzwanF5Vy6JVnjVZYrW-261" value="HE染色观察肿瘤形态" style="text;strokeColor=none;fillColor=none;align=left;verticalAlign=top;spacingLeft=4;spacingRight=4;overflow=hidden;rotatable=0;points=[[0,0.5],[1,0.5]];portConstraint=eastwest;whiteSpace=wrap;html=1;fontSize=12;" parent="tnzwanF5Vy6JVnjVZYrW-260" vertex="1">
          <mxGeometry y="30" width="200" height="26" as="geometry" />
        </mxCell>
        <mxCell id="tnzwanF5Vy6JVnjVZYrW-262" value="Ki67染色检测增殖能力" style="text;strokeColor=none;fillColor=none;align=left;verticalAlign=top;spacingLeft=4;spacingRight=4;overflow=hidden;rotatable=0;points=[[0,0.5],[1,0.5]];portConstraint=eastwest;whiteSpace=wrap;html=1;fontSize=12;" parent="tnzwanF5Vy6JVnjVZYrW-260" vertex="1">
          <mxGeometry y="56" width="200" height="26" as="geometry" />
        </mxCell>
        <mxCell id="tnzwanF5Vy6JVnjVZYrW-263" value="IHC检测HNF4A、ELF3、KRT17、ΔNp63表达" style="text;strokeColor=none;fillColor=none;align=left;verticalAlign=top;spacingLeft=4;spacingRight=4;overflow=hidden;rotatable=0;points=[[0,0.5],[1,0.5]];portConstraint=eastwest;whiteSpace=wrap;html=1;fontSize=12;" parent="tnzwanF5Vy6JVnjVZYrW-260" vertex="1">
          <mxGeometry y="82" width="200" height="38" as="geometry" />
        </mxCell>
        <mxCell id="tnzwanF5Vy6JVnjVZYrW-264" value="RNA-seq" style="swimlane;fontStyle=0;childLayout=stackLayout;horizontal=1;startSize=26;fillColor=none;horizontalStack=0;resizeParent=1;resizeParentMax=0;resizeLast=0;collapsible=1;marginBottom=0;html=1;fontSize=12;" parent="WIyWlLk6GJQsqaUBKTNV-1" vertex="1">
          <mxGeometry x="700" y="610" width="200" height="70" as="geometry" />
        </mxCell>
        <mxCell id="tnzwanF5Vy6JVnjVZYrW-265" value="转录亚型基因分析" style="text;strokeColor=none;fillColor=none;align=left;verticalAlign=top;spacingLeft=4;spacingRight=4;overflow=hidden;rotatable=0;points=[[0,0.5],[1,0.5]];portConstraint=eastwest;whiteSpace=wrap;html=1;fontSize=12;" parent="tnzwanF5Vy6JVnjVZYrW-264" vertex="1">
          <mxGeometry y="26" width="200" height="44" as="geometry" />
        </mxCell>
        <mxCell id="tnzwanF5Vy6JVnjVZYrW-279" style="edgeStyle=orthogonalEdgeStyle;rounded=0;orthogonalLoop=1;jettySize=auto;html=1;exitX=0.5;exitY=1;exitDx=0;exitDy=0;" parent="WIyWlLk6GJQsqaUBKTNV-1" source="tnzwanF5Vy6JVnjVZYrW-266" target="tnzwanF5Vy6JVnjVZYrW-266" edge="1">
          <mxGeometry relative="1" as="geometry" />
        </mxCell>
      </root>
    </mxGraphModel>
  </diagram>
</mxfile>
